<?xml version="1.0" encoding="iso-8859-1"?>
<!-- Generator: Adobe Illustrator 16.0.0, SVG Export Plug-In . SVG Version: 6.00 Build 0)  -->
<!DOCTYPE svg PUBLIC "-//W3C//DTD SVG 1.1//EN" "http://www.w3.org/Graphics/SVG/1.1/DTD/svg11.dtd">
<svg version="1.1" id="Capa_1" xmlns="http://www.w3.org/2000/svg" xmlns:xlink="http://www.w3.org/1999/xlink" x="0px" y="0px"
	 width="36.781px" height="36.781px" viewBox="0 0 36.781 36.781" style="enable-background:new 0 0 36.781 36.781;"
	 xml:space="preserve">
<g>
	<path d="M29.973,0H6.809c-0.828,0-1.5,0.672-1.5,1.5v33.781c0,0.828,0.672,1.5,1.5,1.5h23.164c0.828,0,1.5-0.672,1.5-1.5V1.5
		C31.473,0.672,30.801,0,29.973,0z M18.391,35.561c-1.012,0-1.833-0.822-1.833-1.836s0.821-1.832,1.833-1.832
		c1.014,0,1.834,0.818,1.834,1.832S19.404,35.561,18.391,35.561z M28.473,30.725H8.309V4.059h20.164V30.725z"/>
</g>
<g>
</g>
<g>
</g>
<g>
</g>
<g>
</g>
<g>
</g>
<g>
</g>
<g>
</g>
<g>
</g>
<g>
</g>
<g>
</g>
<g>
</g>
<g>
</g>
<g>
</g>
<g>
</g>
<g>
</g>
</svg>
