<?xml version="1.0" encoding="UTF-8"?>
<svg width="18px" height="18px" viewBox="0 0 18 18" version="1.1" xmlns="http://www.w3.org/2000/svg" xmlns:xlink="http://www.w3.org/1999/xlink">
    <!-- Generator: Sketch 41.2 (35397) - http://www.bohemiancoding.com/sketch -->
    <title>search</title>
    <desc>Created with Sketch.</desc>
    <defs></defs>
    <g id="Page-1" stroke="none" stroke-width="1" fill="none" fill-rule="evenodd">
        <g id="00.-Styleguide" transform="translate(-1267.000000, -888.000000)" fill="#ABABAB">
            <path d="M1281.31986,900.905644 C1282.37292,899.55096 1283,897.848711 1283,896 C1283,891.581722 1279.41828,888 1275,888 C1270.58172,888 1267,891.581722 1267,896 C1267,900.418278 1270.58172,904 1275,904 C1276.84871,904 1278.55096,903.372918 1279.90564,902.319857 L1283.29289,905.707107 C1283.68342,906.097631 1284.31658,906.097631 1284.70711,905.707107 C1285.09763,905.316582 1285.09763,904.683418 1284.70711,904.292893 L1281.31986,900.905644 Z M1281,896 C1281,892.686292 1278.31371,890 1275,890 C1271.68629,890 1269,892.686292 1269,896 C1269,899.313708 1271.68629,902 1275,902 C1278.31371,902 1281,899.313708 1281,896 Z" id="search"></path>
        </g>
    </g>
</svg>